#N canvas 293 236 1246 856 12;
#X obj 298 239 delwrite~ delay 1000;
#X obj 301 280 delread~ delay 0;
#X obj 790 423 line~;
#X obj 113 220 hsl 162 19 0 1 0 0 empty empty empty -2 -10 0 12 #fcfcfc #000000 #000000 0 1;
#X obj 304 435 *~;
#X obj 791 380 pack 0 10;
#X text 109 198 WET;
#X text 108 156 DELAY TIME;
#X obj 994 414 line~;
#X obj 113 308 hsl 162 19 0 1 0 0 empty empty empty -2 -10 0 12 #fcfcfc #000000 #000000 0 1;
#X obj 494 357 *~;
#X obj 113 179 hsl 162 19 0 1000 0 0 empty empty empty -2 -10 0 12 #fcfcfc #000000 #000000 0 1;
#X text 109 285 FEEDBACK;
#X obj 608 412 line~;
#X obj 113 263 hsl 162 19 0 1 0 0 empty empty empty -2 -10 0 12 #fcfcfc #000000 #000000 0 1;
#X obj 592 465 *~;
#X obj 607 379 pack 0 10;
#X text 110 244 DRY;
#X obj 993 380 pack 0 100;
#X obj 104 70 inlet~;
#X obj 588 569 outlet~;
#X connect 1 0 4 0;
#X connect 1 0 10 0;
#X connect 2 0 4 1;
#X connect 3 0 5 0;
#X connect 4 0 20 0;
#X connect 5 0 2 0;
#X connect 8 0 10 1;
#X connect 9 0 18 0;
#X connect 10 0 0 0;
#X connect 11 0 1 0;
#X connect 13 0 15 1;
#X connect 14 0 16 0;
#X connect 15 0 20 0;
#X connect 16 0 13 0;
#X connect 18 0 8 0;
#X connect 19 0 0 0;
#X coords 0 -1 1 1 200 250 1 100 100;
