#N canvas 569 25 1018 910 12;
#X obj 236 44 netreceive -u -b;
#X msg 339 12 listen 0;
#X msg 236 12 listen 12000;
#X obj 236 82 unpackOSC;
#X obj 236 119 route /output_2 /output_3 /output_4 /output_5;
#X obj 376 812 dac~;
#X obj 128 401 *~;
#X msg 233 365 0;
#X obj 201 279 tgl 19 0 empty empty empty 0 -10 0 12 #fcfcfc #000000 #000000 0 1;
#X obj 201 311 sel 1;
#X obj 201 338 bng 19 250 50 0 empty empty empty 0 -10 0 12 #fcfcfc #000000 #000000;
#X obj 233 338 bng 19 250 50 0 empty empty empty 0 -10 0 12 #fcfcfc #000000 #000000;
#X obj 289 398 *~;
#X msg 394 362 0;
#X obj 362 276 tgl 19 0 empty empty empty 0 -10 0 12 #fcfcfc #000000 #000000 0 1;
#X obj 362 308 sel 1;
#X obj 362 335 bng 19 250 50 0 empty empty empty 0 -10 0 12 #fcfcfc #000000 #000000;
#X obj 394 335 bng 19 250 50 0 empty empty empty 0 -10 0 12 #fcfcfc #000000 #000000;
#X obj 493 396 *~;
#X msg 598 360 0;
#X obj 566 274 tgl 19 0 empty empty empty 0 -10 0 12 #fcfcfc #000000 #000000 0 1;
#X obj 566 306 sel 1;
#X obj 566 333 bng 19 250 50 0 empty empty empty 0 -10 0 12 #fcfcfc #000000 #000000;
#X obj 598 333 bng 19 250 50 0 empty empty empty 0 -10 0 12 #fcfcfc #000000 #000000;
#X obj 563 174 tgl 19 0 empty empty empty 0 -10 0 12 #fcfcfc #000000 #000000 0 1;
#X msg 563 213 0;
#X msg 201 365 4;
#X msg 362 362 4;
#X msg 566 360 4;
#X obj 128 366 adc~ 2;
#X obj 289 363 adc~ 2;
#X obj 493 361 adc~ 2;
#X obj 77 456 DelayViolin;
#X obj 320 448 FlangerViolin;
#X obj 524 446 PhaserViolin;
#X connect 0 0 3 0;
#X connect 1 0 0 0;
#X connect 2 0 0 0;
#X connect 3 0 4 0;
#X connect 4 0 8 0;
#X connect 4 1 14 0;
#X connect 4 2 20 0;
#X connect 4 3 24 0;
#X connect 6 0 32 0;
#X connect 7 0 6 1;
#X connect 8 0 9 0;
#X connect 9 0 10 0;
#X connect 9 1 11 0;
#X connect 10 0 26 0;
#X connect 11 0 7 0;
#X connect 12 0 33 0;
#X connect 13 0 12 1;
#X connect 14 0 15 0;
#X connect 15 0 16 0;
#X connect 15 1 17 0;
#X connect 16 0 27 0;
#X connect 17 0 13 0;
#X connect 18 0 34 0;
#X connect 19 0 18 1;
#X connect 20 0 21 0;
#X connect 21 0 22 0;
#X connect 21 1 23 0;
#X connect 22 0 28 0;
#X connect 23 0 19 0;
#X connect 24 0 25 0;
#X connect 25 0 20 0;
#X connect 25 0 14 0;
#X connect 25 0 8 0;
#X connect 26 0 6 1;
#X connect 27 0 12 1;
#X connect 28 0 18 1;
#X connect 29 0 6 0;
#X connect 30 0 12 0;
#X connect 31 0 18 0;
#X connect 32 0 5 0;
#X connect 32 0 5 1;
#X connect 33 0 5 0;
#X connect 33 0 5 1;
#X connect 34 0 5 0;
#X connect 34 0 5 1;
