#N canvas -18 25 1202 903 12;
#X obj 734 427 osc~;
#X floatatom 114 178 5 0 0 0 - - - 0;
#X text 109 159 SPEED;
#X obj 734 457 +~ 1;
#X obj 734 481 /~ 2;
#X obj 734 517 *~;
#X text 115 203 WIDTH;
#X obj 734 601 delread4~ flanger;
#X obj 927 599 pack 0 10;
#X obj 927 631 line~;
#X obj 734 656 *~;
#X text 205 202 DRY, f 4;
#X obj 118 225 vsl 19 162 0 127 0 0 empty empty empty 0 -9 0 12 #fcfcfc #000000 #000000 0 1;
#X obj 213 225 vsl 19 162 0 127 0 0 empty empty empty 0 -9 0 12 #fcfcfc #000000 #000000 0 1;
#X obj 571 581 pack 0 10;
#X obj 571 613 line~;
#X obj 167 224 vsl 19 162 0 127 0 0 empty empty empty 0 -9 0 12 #fcfcfc #000000 #000000 0 1;
#X obj 371 651 *~;
#X text 163 203 WET;
#X obj 387 456 delwrite~ flanger 1000;
#X obj 370 413 inlet~;
#X obj 547 809 outlet~;
#X connect 0 0 3 0;
#X connect 1 0 0 0;
#X connect 3 0 4 0;
#X connect 4 0 5 0;
#X connect 5 0 7 0;
#X connect 7 0 10 0;
#X connect 8 0 9 0;
#X connect 9 0 10 1;
#X connect 10 0 21 0;
#X connect 12 0 5 1;
#X connect 13 0 8 0;
#X connect 14 0 15 0;
#X connect 15 0 17 1;
#X connect 16 0 14 0;
#X connect 17 0 21 0;
#X connect 20 0 17 0;
#X connect 20 0 19 0;
#X coords 0 -1 1 1 150 300 1 100 100;
